PathFileType	4	(X/Y/Z)	c:/Users/goper/Files/vsCode/490R/osim_files/C03/C03_Slow_06.trc
DataRate	CameraRate	NumFrames	NumMarkers	Units                	OrigDataRate	OrigDataStartFrame	OrigNumFrames
250.00	250.00	10	36	mm	250.0	1909	2545
                Frame#	Time	LPSIS			LASIS			LTH1			LTH2			LTH3			LTH4			LLFE			LMFE			LSH1			LSH2			LSH3			LSH4			LLMAL			LMMAL			LCAL			LMTP5			LTOE			LMTP1			RPSIS			RASIS			RTH1			RTH2			RTH3			RTH4			RLFE			RMFE			RSH1			RSH2			RSH3			RSH4			RLMAL			RMMAL			RCAL			RMTP1			RTOE			RMTP5		
		X1	Y1	Z1	X2	Y2	Z2	X3	Y3	Z3	X4	Y4	Z4	X5	Y5	Z5	X6	Y6	Z6	X7	Y7	Z7	X8	Y8	Z8	X9	Y9	Z9	X10	Y10	Z10	X11	Y11	Z11	X12	Y12	Z12	X13	Y13	Z13	X14	Y14	Z14	X15	Y15	Z15	X16	Y16	Z16	X17	Y17	Z17	X18	Y18	Z18	X19	Y19	Z19	X20	Y20	Z20	X21	Y21	Z21	X22	Y22	Z22	X23	Y23	Z23	X24	Y24	Z24	X25	Y25	Z25	X26	Y26	Z26	X27	Y27	Z27	X28	Y28	Z28	X29	Y29	Z29	X30	Y30	Z30	X31	Y31	Z31	X32	Y32	Z32	X33	Y33	Z33	X34	Y34	Z34	X35	Y35	Z35	X36	Y36	Z36

1909	7.63200	-2336.26294	1027.52380	224.66399	-2513.75391	970.80450	268.23175	-2449.92236	613.71613	303.40555	-2465.26685	553.07983	298.74066	-2521.94995	626.01208	320.75690	-2528.92578	565.19452	315.16571	-2487.35400	483.65045	304.30585	-2510.42603	462.71680	194.47723	-2311.98413	427.06235	292.98865	-2277.19775	395.72818	290.35529	-2348.17212	381.68771	311.54169	-2307.15015	356.60202	306.98587	-2171.84351	266.50287	278.60934	-2199.69531	247.97144	205.95914	-2111.66089	305.23914	236.37753	-2174.30078	119.38170	305.01993	-2212.93091	99.78223	256.10220	-2194.88965	112.84576	213.68436	-2346.13745	1031.05493	111.66778	-2519.85400	994.00024	62.81072	-2404.76196	607.22791	43.93600	-2406.82812	546.27094	57.95196	-2468.64111	611.08466	29.52420	-2481.52612	550.56512	39.49195	-2479.41748	482.45752	60.34489	-2449.53809	500.74103	169.59549	-2411.46411	288.51288	57.77821	-2421.06763	242.10632	64.07611	-2474.41431	291.33615	52.78144	-2472.97510	247.89339	58.28163	-2478.89526	95.29384	96.54547	-2493.44312	106.77465	176.09212	-2416.55420	63.29591	139.77255	0.00000	0.00000	0.00000	-2646.38599	76.56659	151.81567	-2601.89600	40.50853	86.39374
1910	7.63600	-2340.49390	1028.24780	224.62854	-2518.60474	971.82672	267.78702	-2457.86694	614.37219	303.66849	-2473.85059	553.95648	298.90329	-2529.78125	627.53259	320.68558	-2537.44824	566.80548	315.10156	-2496.75806	485.02045	304.07068	-2519.04834	464.00461	194.27686	-2321.50049	427.57980	292.66882	-2286.86279	396.02997	290.11237	-2357.93164	382.42896	311.35382	-2316.83716	356.82785	306.76447	-2182.27539	266.44891	278.55551	-2209.57178	247.82397	205.57455	-2121.54541	304.32272	236.36641	-2186.43237	119.57301	305.67764	-2225.05493	99.98272	256.67392	-2207.62207	112.26692	214.89507	-2349.91846	1031.51843	111.67124	-2523.61548	994.19763	62.33242	-2407.26294	607.51312	43.81231	-2409.06543	546.62878	58.21045	-2471.20361	611.19006	29.77878	-2483.78516	550.60040	39.73200	-2481.49634	482.55881	60.64597	-2451.81128	501.04092	169.80246	-2412.46362	288.95526	58.20097	-2421.63477	242.55249	64.26237	-2475.06250	291.36374	52.86341	-2473.69360	247.99805	58.52671	-2479.09204	95.42112	96.73251	-2493.84619	107.11313	176.27098	-2416.60547	63.39442	139.80754	0.00000	0.00000	0.00000	-2646.57959	76.22028	151.92963	-2601.95679	40.44286	86.47436
1911	7.64000	-2344.72510	1028.70740	224.68594	-2522.41211	972.28455	267.44644	-2465.59351	614.70361	302.97583	-2482.36450	554.85712	299.08481	-2537.70435	629.08655	320.67557	-2545.89893	568.40607	315.05243	-2505.99292	486.31113	303.85474	-2528.18188	465.46991	194.05634	-2331.09937	427.94278	292.55646	-2296.74438	396.15677	290.12265	-2367.77612	383.02417	311.18414	-2326.97437	357.38382	306.67737	-2192.71167	266.10403	278.56735	-2220.59790	247.33919	205.93730	-2131.49756	303.26108	236.29268	-2198.78174	119.51416	306.34064	-2237.42090	100.24617	257.35965	-2218.31079	112.50266	214.89264	-2353.78223	1031.93567	111.66660	-2527.32764	994.31970	61.79488	-2411.39648	607.46350	42.70885	-2411.17871	546.90991	58.46564	-2474.16870	611.30005	29.86902	-2486.11182	550.60626	40.03844	-2483.46509	482.63104	60.90840	-2454.13867	501.40836	169.97310	-2413.33301	289.35663	58.63990	-2422.35229	242.89528	64.64894	-2476.05396	291.42172	53.14146	-2474.48779	248.10246	58.80537	-2479.28418	95.53489	96.92675	-2493.74683	106.57253	176.49174	-2416.66235	63.46989	139.86421	0.00000	0.00000	0.00000	-2646.75757	75.81915	152.03448	-2602.06860	40.43598	86.53041
1912	7.64400	-2348.94556	1029.29761	224.76506	-2527.33862	973.35883	266.92542	0.00000	0.00000	0.00000	-2490.78784	555.87378	299.30499	-2545.38550	630.62823	320.61374	-2554.19678	570.02606	314.92789	-2515.16455	487.69272	303.59528	-2539.24121	468.27283	193.51236	-2340.59961	428.22665	292.33990	-2306.40649	396.17633	289.79941	-2377.64868	383.47723	311.08191	-2337.14185	357.56442	306.71689	-2203.24023	265.62451	278.61066	-2231.22314	246.85168	205.94777	-2141.51172	301.91254	236.25005	-2211.13818	119.43410	307.05026	-2249.87817	100.31950	258.00110	-2228.96558	112.67502	214.57268	-2357.66089	1032.30249	111.72763	-2531.12231	994.54236	61.21719	-2413.37280	608.04572	44.02406	-2413.31274	547.11536	58.95271	-2476.30811	611.44452	30.22818	-2488.59521	550.80359	40.24442	-2485.48389	482.70602	61.18364	-2456.14404	501.63629	170.40488	-2414.28687	289.73682	59.11869	-2423.06421	243.30307	65.07977	-2477.02979	291.47198	53.41486	-2475.21704	248.18494	59.08258	-2479.40723	95.62214	97.10420	-2493.92603	106.50098	176.68489	-2416.72583	63.55790	139.93732	0.00000	0.00000	0.00000	-2646.89038	75.37347	152.21182	-2602.13574	40.38376	86.58852
1913	7.64800	-2353.45020	1030.00146	224.75082	-2531.59668	974.08313	266.44547	0.00000	0.00000	0.00000	-2499.12280	556.88232	299.45673	-2552.95654	632.20593	320.54892	-2562.55542	571.74969	314.84512	-2524.23242	489.05493	303.28830	-2548.25342	469.85834	193.22018	-2350.08813	428.37457	292.24954	-2316.04980	396.06448	289.66916	-2387.38184	383.88318	310.92670	-2346.99512	357.67493	306.41312	-2213.76367	265.04712	278.52029	-2241.94604	246.23482	206.06105	-2151.66187	300.32462	236.10176	-2223.68579	119.21313	307.72031	-2262.50659	100.23865	258.72308	-2242.98267	111.38243	216.25354	-2361.24707	1032.73010	111.80239	-2534.88354	994.65424	60.75983	-2415.36914	608.34998	44.24759	-2415.56274	547.49622	59.38923	-2478.82617	611.56750	30.45258	-2490.75195	550.78961	40.53015	-2487.34009	482.75726	61.48032	-2459.25195	501.73068	170.40959	-2415.29907	290.18713	59.48222	-2424.02637	243.71844	65.69167	-2477.96411	291.60007	53.65957	-2475.99634	248.27850	59.35984	-2479.61475	95.70392	97.29681	-2494.15552	106.47928	176.90045	-2416.78491	63.65619	139.98016	0.00000	0.00000	0.00000	-2647.06567	75.07047	152.29344	-2602.20703	40.34393	86.62575
1914	7.65200	-2357.33911	1030.56445	224.91956	-2535.38574	974.46411	266.01147	0.00000	0.00000	0.00000	-2507.30688	557.89038	299.58224	-2560.92114	634.08453	320.59070	-2570.71655	573.45264	314.72098	-2533.28052	490.44431	302.98257	-2557.55054	471.67444	192.83835	-2359.51611	428.36368	292.09402	-2325.77148	395.73209	289.46289	-2397.30542	384.13724	310.79437	-2356.91870	357.58896	306.23657	-2224.47168	264.29987	278.56598	-2252.72803	245.53116	206.11365	-2161.68604	298.63699	236.04597	-2236.39990	118.84514	308.50089	-2275.44165	100.22359	259.55829	-2255.45264	110.76250	217.05530	-2365.11768	1033.11157	111.86382	-2538.62720	994.77728	60.20465	-2418.32617	609.08655	44.44715	-2418.06348	547.96588	59.60251	-2481.26904	611.66064	30.62429	-2493.07959	550.86188	40.75441	-2489.25513	482.78824	61.63114	-2461.69971	501.98071	170.64183	-2416.24316	290.59366	59.90464	-2424.76025	243.99725	66.06083	-2478.93677	291.71625	53.95520	-2476.78833	248.37082	59.58476	-2479.78638	95.78336	97.49909	-2494.48315	106.47923	177.10884	-2416.86719	63.77774	140.04758	0.00000	0.00000	0.00000	-2647.22705	74.72454	152.41212	-2602.27588	40.30896	86.66151
1915	7.65600	-2361.62158	1031.13965	225.09737	-2539.78369	975.14697	265.54855	-2496.83130	618.14758	305.05795	-2515.69775	559.09418	299.82361	-2568.25977	635.59528	320.45575	-2578.89868	575.24957	314.59482	-2542.31128	491.96542	302.71451	-2566.40430	473.38248	192.49406	-2368.88599	428.25323	291.97778	-2335.43872	395.36722	289.39944	-2407.15576	384.27692	310.68396	-2366.91504	357.47665	306.17636	-2235.29248	263.33578	278.60141	-2263.50220	244.63008	206.16087	-2171.81372	296.63956	235.95049	-2249.19922	118.36260	309.23224	-2288.14917	99.98615	260.28534	-2268.10889	110.02982	217.87173	-2369.43213	1033.43152	111.98640	-2542.23169	994.82587	59.70345	-2420.81226	609.46906	45.02096	-2420.38794	548.33459	59.94865	-2483.72241	611.75513	30.84807	-2497.24146	551.95630	40.22513	-2491.00708	482.85031	61.82214	-2464.15259	502.16519	170.86949	-2417.36621	290.98691	60.33955	-2425.51733	244.37228	66.37331	-2479.92358	291.79080	54.23528	-2477.59375	248.52802	59.86040	-2479.96802	95.85484	97.67405	-2494.58862	106.55679	176.55739	-2416.97119	63.82518	140.10088	0.00000	0.00000	0.00000	-2647.41479	74.37895	152.52617	-2602.32373	40.26194	86.68070
1916	7.66000	-2365.77051	1031.85706	225.21298	-2544.69849	976.20123	264.94223	-2503.74634	618.88049	304.14120	-2523.68359	560.03314	299.87042	-2575.69287	637.26593	320.33408	-2586.92725	577.01276	314.39392	-2550.93848	493.32339	302.30066	-2575.03857	475.09195	192.11238	-2379.04150	428.09189	292.43079	-2345.14600	394.87231	289.26660	-2416.86719	384.42911	310.46362	-2377.11548	357.42792	306.09930	-2246.15186	262.34564	278.64850	-2274.51929	243.67329	206.24579	-2181.50024	294.65924	235.74774	-2262.19409	117.83202	310.06674	-2301.71899	99.97932	261.26843	-2281.03394	109.23351	218.72552	-2372.97168	1033.82104	112.13753	-2545.84180	994.95367	59.13172	-2423.17065	609.35034	45.19120	-2422.56079	548.71692	60.34472	-2486.17114	611.83014	31.02909	-2499.38892	551.95990	40.48028	-2492.73315	482.90073	61.98835	-2466.81348	502.50208	170.97438	-2418.27393	291.41208	60.66441	-2426.31494	244.78494	66.72987	-2481.00342	291.87158	54.48708	-2478.38623	248.66049	60.12175	-2480.11768	95.93393	97.83238	-2494.83276	106.55912	176.78110	-2417.34399	63.81867	140.31390	0.00000	0.00000	0.00000	-2647.51465	74.02489	152.67859	-2602.39771	40.20580	86.70478
1917	7.66400	-2370.08667	1032.33533	225.29063	-2548.91284	976.84741	264.47415	-2511.37964	620.21777	305.16718	-2531.77979	561.19952	300.10071	-2583.31885	639.15460	320.28207	-2594.84009	578.74774	314.20706	-2559.62134	494.76764	301.86627	-2583.82495	476.95193	191.67569	-2385.97559	428.44901	291.21008	-2354.81494	394.25406	289.12869	-2426.59595	384.47385	310.29193	-2387.24731	357.19025	305.97192	-2256.63428	261.09174	278.60840	-2285.47461	242.56390	206.33333	-2191.85303	292.19904	235.61992	-2275.33423	117.16138	310.84677	-2315.15234	99.70281	262.17374	-2294.07886	108.35587	219.50119	-2377.08154	1034.24341	112.20243	-2549.40088	994.96143	58.61418	-2425.75684	609.16681	44.80238	-2424.86499	549.16956	60.51888	-2488.60718	611.94232	31.19841	-2501.74976	552.13525	40.60629	-2495.62451	483.09781	62.62003	-2469.33862	502.63937	171.20255	-2419.39185	291.82230	60.99141	-2427.03198	245.16699	67.03358	-2481.90137	291.86960	54.73817	-2479.24927	248.75775	60.39040	-2480.25879	96.02139	97.99351	-2495.01880	106.51497	177.03407	-2417.28638	63.90818	140.31738	0.00000	0.00000	0.00000	-2647.60181	73.77484	152.70403	-2602.46777	40.15521	86.71545
1918	7.66800	-2374.12695	1033.12256	225.57707	-2552.63623	977.18964	264.03772	-2519.02393	621.25140	305.48795	-2539.80640	562.38989	300.24231	-2590.70288	640.82697	320.15927	-2602.67236	580.43512	313.98776	-2568.18091	496.24768	301.47546	-2591.00464	478.04160	191.48637	-2396.83984	427.54407	291.75342	-2364.38232	393.63544	289.01791	-2436.39331	384.50955	310.09833	-2397.40576	356.87448	305.88348	-2267.51831	259.71869	278.69763	-2296.54663	241.29973	206.38855	-2202.30859	289.56253	235.63879	-2288.63940	116.38439	311.78659	-2329.21484	99.54339	263.26892	-2307.27905	107.39025	220.47166	-2380.94409	1034.62341	112.38143	-2553.08154	995.04254	58.10345	-2427.76025	609.51282	46.03479	-2427.13013	549.59534	60.77228	-2490.57275	611.75366	31.08145	-2503.35596	552.07275	40.88469	-2497.65649	483.17465	62.88670	-2471.63086	502.72638	171.37953	-2420.38477	292.31097	61.32553	-2428.00659	245.52945	67.34259	-2483.06812	292.11200	54.98037	-2480.16797	248.87589	60.63393	-2480.40991	96.11511	98.14985	-2495.22876	106.49007	177.25281	-2417.25269	64.05187	140.26215	0.00000	0.00000	0.00000	-2647.72070	73.52359	152.76213	-2602.51929	40.10022	86.71817
